# xmcd
#
# Track frame offsets:
#	150
#	13815
#	32363
#	49905
#	65064
#	80575
#	98207
#	115436
#	132126
#	150217
#	164685
#	181282
#	197485
#	214863
#
# Disc length: 3295 seconds
#
# Revision: 2
# Processed by: cddbd v1.4PL0 Copyright (c) Steve Scherf et al.
# Submitted via: audiograbber 1.80.04
#
DISCID=bc0cdd0e
DTITLE=Glamour Puss Blues Band - Glamour Puss Blues Band
DYEAR=1900
DGENRE=
TTITLE0=Straight Ahead
TTITLE1=Shine
TTITLE2=One Way Line
TTITLE3=I Don't Need The Money That Bad
TTITLE4=Don't Want Your Love
TTITLE5=You Better Think About That
TTITLE6=Pi Moi Chû Cool
TTITLE7=Last Cigarette
TTITLE8=I Had to Let You Go
TTITLE9=Chicago Bound
TTITLE10=Hide Away
TTITLE11=Don't Hold me Back
TTITLE12=Les Haricots Sont Pas Salés
TTITLE13=Georgia On My Mind
EXTD=
EXTT0=
EXTT1=
EXTT2=
EXTT3=
EXTT4=
EXTT5=
EXTT6=
EXTT7=
EXTT8=
EXTT9=
EXTT10=
EXTT11=
EXTT12=
EXTT13=
PLAYORDER=
